<?xml version="1.0" encoding="UTF-8"?>
<svg version="1.1" xmlns="http://www.w3.org/2000/svg" width="500" height="500">
<path d="M0 0 C165 0 330 0 500 0 C500 165 500 330 500 500 C335 500 170 500 0 500 C0 335 0 170 0 0 Z " fill="#FEFEFE" transform="translate(0,0)"/>
<path d="M0 0 C1.07421204 0.35707031 2.14842407 0.71414062 3.25518799 1.08203125 C4.39913025 1.46746094 5.54307251 1.85289063 6.72167969 2.25 C7.90703308 2.64574219 9.09238647 3.04148437 10.31365967 3.44921875 C13.45065846 4.49769293 16.58626322 5.5502098 19.72131348 6.60449219 C22.28585696 7.46569152 24.8518903 8.32239946 27.41798782 9.17895508 C30.47818776 10.20073823 33.53744367 11.22533507 36.59667969 12.25 C37.74871887 12.63542969 38.90075806 13.02085937 40.08770752 13.41796875 C41.14931091 13.77503906 42.21091431 14.13210937 43.3046875 14.5 C44.24145325 14.81453125 45.17821899 15.1290625 46.14337158 15.453125 C48.39355469 16.25 48.39355469 16.25 50.39355469 17.25 C50.39355469 75.33 50.39355469 133.41 50.39355469 193.25 C29.91429689 188.69905382 10.29581587 180.88408706 -9.60644531 174.25 C-9.60644531 129.04 -9.60644531 83.83 -9.60644531 37.25 C-32.87144531 45.17 -32.87144531 45.17 -56.60644531 53.25 C-47.2058649 57.20748797 -47.2058649 57.20748797 -39.60644531 59.25 C-39.60644531 93.57 -39.60644531 127.89 -39.60644531 163.25 C-45.91232082 161.53021577 -52.03654182 159.85795249 -58.20800781 157.8046875 C-58.85595306 157.58934357 -59.50389832 157.37399963 -60.17147827 157.15213013 C-61.51438618 156.70494117 -62.85680648 156.25628522 -64.19873047 155.80615234 C-66.26153335 155.11491765 -68.32644638 154.43026454 -70.39160156 153.74609375 C-71.70553237 153.30767726 -73.01933937 152.8688895 -74.33300781 152.4296875 C-75.51459473 152.03507324 -76.69618164 151.64045898 -77.91357422 151.23388672 C-80.60644531 150.25 -80.60644531 150.25 -81.60644531 149.25 C-81.70171568 147.90927183 -81.72833301 146.56357497 -81.72669983 145.21946716 C-81.72807449 144.35143463 -81.72944916 143.4834021 -81.73086548 142.58906555 C-81.7272702 141.62953476 -81.72367493 140.67000397 -81.7199707 139.68139648 C-81.72011673 138.67663269 -81.72026276 137.6718689 -81.72041321 136.63665771 C-81.71971361 133.29811483 -81.71191905 129.95962695 -81.70410156 126.62109375 C-81.70223755 124.31323782 -81.70081357 122.00538149 -81.69981384 119.69752502 C-81.69598736 113.60982174 -81.68615596 107.52214214 -81.67510986 101.43444824 C-81.66489854 95.22778646 -81.66031682 89.02112087 -81.65527344 82.81445312 C-81.64453381 70.62629165 -81.62745583 58.43814779 -81.60644531 46.25 C-80.94 46.43175781 -80.27355469 46.61351562 -79.58691406 46.80078125 C-78.20439453 47.17783203 -78.20439453 47.17783203 -76.79394531 47.5625 C-73.70019531 48.40625 -73.70019531 48.40625 -70.60644531 49.25 C-66.97644531 50.24 -63.34644531 51.23 -59.60644531 52.25 C-59.60644531 39.71 -59.60644531 27.17 -59.60644531 14.25 C-53.54541505 11.55620877 -47.6579635 9.0977679 -41.40722656 6.98046875 C-40.56854538 6.69520828 -39.7298642 6.40994781 -38.86576843 6.11604309 C-37.10950965 5.52125662 -35.3524022 4.92897057 -33.59448242 4.33911133 C-30.91099237 3.43481999 -28.23450286 2.51152022 -25.55761719 1.58789062 C-23.84121848 1.00923427 -22.12443429 0.43171983 -20.40722656 -0.14453125 C-19.61335037 -0.42150345 -18.81947418 -0.69847565 -18.00154114 -0.98384094 C-17.25023422 -1.23127548 -16.49892731 -1.47871002 -15.72485352 -1.73364258 C-15.07249222 -1.95474197 -14.42013092 -2.17584137 -13.7480011 -2.40364075 C-9.01005508 -3.16992078 -4.45775301 -1.49168087 0 0 Z " fill="#004AAD" transform="translate(278.6064453125,116.75)"/>
<path d="M0 0 C0 23.43 0 46.86 0 71 C-10.89 74.63 -21.78 78.26 -33 82 C-33 58.24 -33 34.48 -33 10 C-3 0 -3 0 0 0 Z " fill="#014AAD" transform="translate(196,163)"/>
<path d="M0 0 C-0.33 58.08 -0.66 116.16 -1 176 C-1.33 176 -1.66 176 -2 176 C-2 130.79 -2 85.58 -2 39 C-25.265 46.92 -25.265 46.92 -49 55 C-50.65 55 -52.3 55 -54 55 C-53.01 54.505 -53.01 54.505 -52 54 C-52 41.46 -52 28.92 -52 16 C-45.91360213 13.29493428 -40.01083309 10.84099518 -33.73046875 8.73046875 C-32.88704422 8.44520828 -32.04361969 8.15994781 -31.17463684 7.86604309 C-29.40995159 7.27134609 -27.64445265 6.6790585 -25.87817383 6.08911133 C-23.17347967 5.18280196 -20.47453 4.2605918 -17.77539062 3.33789062 C-16.05241193 2.75943699 -14.32911547 2.1819288 -12.60546875 1.60546875 C-11.80126999 1.32849655 -10.99707123 1.05152435 -10.16850281 0.76615906 C-9.41704483 0.51872452 -8.66558685 0.27128998 -7.89135742 0.01635742 C-7.2345549 -0.20474197 -6.57775238 -0.42584137 -5.90104675 -0.65364075 C-4 -1 -4 -1 0 0 Z " fill="#0A51B0" transform="translate(271,115)"/>
</svg>
